<svg id="Layer_1" enable-background="new 0 0 510 510" height="512" viewBox="0 0 510 510" width="512" xmlns="http://www.w3.org/2000/svg"><g><g fill="#ffbe40"><path d="m194.246 89.467c-7.419-7.419-21.213-21.213-21.213-21.213l21.213-21.213 21.213 21.213c.001-.001-13.794 13.794-21.213 21.213z"/><path d="m240 157.5h-30s0-19.508 0-30h30z"/><path d="m194.247 237.96-21.213-21.214s13.794-13.794 21.213-21.213l21.213 21.213c-7.42 7.42-21.213 21.214-21.213 21.214z"/><path d="m45.753 237.96-21.213-21.213s13.794-13.794 21.213-21.213c7.419 7.419 21.213 21.213 21.213 21.213z"/></g><path d="m30 157.5h-30s0-19.508 0-30h30z" fill="#ffe652"/><path d="m45.753 237.96-21.213-21.213s13.794-13.794 21.213-21.213c7.419 7.419 21.213 21.213 21.213 21.213z" fill="#ffe652"/><path d="m45.754 89.467c-7.419-7.419-21.213-21.213-21.213-21.213l21.213-21.213 21.213 21.213s-13.794 13.794-21.213 21.213z" fill="#ffe652"/><path d="m77.594 184.907c10.864 10.864 25.864 17.593 42.406 17.593l15-60-15-60c-16.542 0-31.542 6.729-42.406 17.594-23.454 23.453-23.469 61.345 0 84.813z" fill="#ffe652"/><path d="m180 142.5c0-33.083-26.915-60-60-60v120c33.083 0 60-26.915 60-60z" fill="#ffbe40"/><path d="m105 22.5v30h15l10-15-10-15z" fill="#ffe652"/><path d="m120 22.5h15v30h-15z" fill="#ffbe40"/><path d="m240.567 334.417c4.081-62.686 31.035-122.742 79.073-168.279l10 81.363-10 63.026z" fill="#ffe652"/><path d="m510 171.448c0-20.195 0-62.969 0-75.21-5.246 0-9.754 0-15 0-63.365 0-126.156 23.254-175.359 69.9v144.389z" fill="#ffbe40"/><path d="m105 262.5h15l10-15-10-15h-15z" fill="#ffe652"/><path d="m120 232.5h15v30h-15z" fill="#ffbe40"/><path d="m370.417 353.083 19.706-6.877c2.637-55.607 48.704-99.969 104.877-99.969h15c0-8.427 0-65.91 0-74.79-5.246-.074-9.754-.137-15-.21-84.79 0-156.768 58.882-175.359 139.289z" fill="#ff405c"/><path d="m220.023 365.275c-29.955 4.192-53.312 29.744-53.312 60.811 0 34.062 28.029 61.414 62.033 61.414h90.897c0-4.991 0-171.983 0-176.974-42.755-8.043-84.125 15.625-99.618 54.749z" fill="#bcfbff"/><path d="m449.014 383.664c-13.737-25.872-42.664-41.314-72.978-36.779-12.959-18.467-32.874-31.934-56.396-36.358v176.974h122.609c29.198 0 52.75-23.497 52.75-52.132.001-26.339-19.938-48.395-45.985-51.705z" fill="#45f6ff"/></g></svg>